<svg width="388" height="97" viewBox="0 0 388 97" fill="none" xmlns="http://www.w3.org/2000/svg">
<path d="M102.035 45.493C78.5335 38.1695 69.4269 21.5825 65.9017 10.282C65.1673 8.00251 61.8869 8.00251 61.1525 10.282C54.1512 32.592 37.3577 41.807 25.8519 45.5415C23.5508 46.269 23.5997 49.5185 25.9009 50.1975C47.3946 56.5995 56.9419 74.69 60.9567 86.4755C61.7401 88.8035 65.0204 88.658 65.7059 86.33C72.1687 62.7105 90.0393 53.641 101.937 50.1975C104.287 49.5185 104.336 46.2205 102.035 45.493ZM77.0647 48.985C72.952 50.1975 66.783 53.3015 64.5308 61.498C64.286 62.3225 63.1599 62.371 62.9151 61.5465C61.5442 57.4725 58.2639 51.216 50.8218 48.985C50.0385 48.7425 49.9895 47.627 50.8218 47.3845C54.7877 46.075 60.614 42.9225 63.013 35.211C63.2578 34.435 64.3839 34.435 64.6287 35.211C65.8528 39.091 68.9862 44.8625 77.1137 47.3845C77.8971 47.627 77.8971 48.7425 77.0647 48.985Z" fill="url(#paint0_linear_1_2)"/>
<path d="M132.896 32.824C134.4 32.856 136.24 33.144 138.416 33.688C140.592 34.232 141.68 34.712 141.68 35.128C141.68 35.512 141.504 36.024 141.152 36.664C140.8 37.272 140.544 37.608 140.384 37.672C140.096 37.672 139.184 37.464 137.648 37.048C135.568 36.728 134.224 36.568 133.616 36.568C130.704 36.568 128.432 36.888 126.8 37.528C125.552 37.976 124.368 38.648 123.248 39.544C122.16 40.408 121.28 41.272 120.608 42.136C119.936 42.968 119.328 44.072 118.784 45.448C118.272 46.792 118 48.248 117.968 49.816C117.968 53.464 119.232 56.616 121.76 59.272C124.288 61.896 128.016 63.304 132.944 63.496C134.544 63.496 136.896 63.192 140 62.584C141.152 62.2 141.824 62.008 142.016 62.008C142.272 62.104 142.48 62.344 142.64 62.728C142.832 63.08 142.928 63.432 142.928 63.784C142.928 64.552 141.776 65.368 139.472 66.232C137.2 67.064 134.736 67.512 132.08 67.576C128.432 67.512 124.944 66.616 121.616 64.888C117.904 63 115.312 60.408 113.84 57.112C113.04 55.256 112.64 53.256 112.64 51.112C112.64 45.896 114.576 41.544 118.448 38.056C122.32 34.568 127.136 32.824 132.896 32.824ZM175.268 32.872C175.364 32.84 175.572 32.824 175.892 32.824C176.244 32.824 176.66 32.92 177.14 33.112C177.652 33.272 177.908 33.464 177.908 33.688C177.908 33.88 177.732 34.344 177.38 35.08C177.06 35.784 176.468 37.08 175.604 38.968L173.732 43C173.188 44.152 172.212 46.104 170.804 48.856C169.428 51.576 168.436 53.64 167.828 55.048C167.22 56.456 166.308 58.328 165.092 60.664C163.908 62.968 163.172 64.456 162.884 65.128C162.596 65.768 162.356 66.232 162.164 66.52C161.748 67.224 161.204 67.576 160.532 67.576C159.924 67.576 159.38 67.128 158.9 66.232C158.772 66.008 158.66 65.832 158.564 65.704C158.5 65.576 158.404 65.368 158.276 65.08C158.148 64.792 157.972 64.456 157.748 64.072C157.556 63.656 157.092 62.712 156.356 61.24C155.652 59.736 155.124 58.664 154.772 58.024C154.452 57.352 152.82 53.72 149.876 47.128C148.436 43.736 147.38 41.096 146.708 39.208C146.036 37.288 145.62 36.152 145.46 35.8C145.172 35 145.028 34.44 145.028 34.12C145.028 33.8 145.444 33.512 146.276 33.256C147.14 32.968 147.764 32.824 148.148 32.824C148.564 32.824 148.852 32.888 149.012 33.016C149.172 33.112 149.332 33.32 149.492 33.64C149.684 33.928 149.812 34.168 149.876 34.36C150.292 35.224 151.54 38.104 153.62 43C155.732 47.864 157.284 51.56 158.276 54.088C160.1 58.472 161.156 60.664 161.444 60.664C161.604 60.664 161.812 60.376 162.068 59.8C162.356 59.192 162.964 57.944 163.892 56.056C164.82 54.136 165.78 52.168 166.772 50.152C169.012 45.448 171.172 40.808 173.252 36.232C174.148 34.152 174.82 33.032 175.268 32.872ZM184.698 52.552L188.634 52.456C189.434 52.456 189.866 52.6 189.93 52.888C189.962 52.952 189.978 53.096 189.978 53.32C189.978 53.544 189.898 54.104 189.738 55C189.578 55.864 189.402 56.328 189.21 56.392C188.858 56.52 188.218 56.584 187.29 56.584L184.266 56.536C182.25 56.536 180.49 56.536 178.986 56.536C178.474 56.536 178.218 55.848 178.218 54.472C178.218 54.152 178.234 53.768 178.266 53.32C178.33 52.84 178.538 52.6 178.89 52.6L184.698 52.552ZM197.825 39.4C197.505 39.304 197.121 38.984 196.673 38.44C196.257 37.864 196.049 37.336 196.049 36.856C196.081 36.344 196.401 35.832 197.009 35.32C197.649 34.776 198.465 34.504 199.457 34.504C200.929 34.504 201.665 35.208 201.665 36.616C201.665 37.608 201.345 38.344 200.705 38.824C200.097 39.304 199.537 39.544 199.025 39.544C198.545 39.544 198.145 39.496 197.825 39.4ZM200.801 56.584L200.945 66.088C200.945 66.472 200.897 66.712 200.801 66.808C200.481 66.968 199.809 67.048 198.785 67.048C197.761 67.048 197.121 66.984 196.865 66.856C196.641 66.696 196.529 66.248 196.529 65.512L196.337 56.728C196.337 53.656 196.353 51.704 196.385 50.872L196.529 48.04C196.529 47.144 196.673 46.616 196.961 46.456C197.249 46.296 197.793 46.216 198.593 46.216C199.425 46.216 200.129 46.264 200.705 46.36C200.769 47.768 200.801 48.872 200.801 49.672V56.584ZM209.973 46.216L212.229 46.168C212.229 46.328 212.325 46.728 212.517 47.368C212.709 47.304 213.253 47.112 214.149 46.792C216.261 46.056 218.005 45.688 219.381 45.688C220.789 45.688 222.021 45.912 223.077 46.36C224.133 46.776 224.949 47.32 225.525 47.992C226.101 48.632 226.565 49.496 226.917 50.584C227.429 52.344 227.685 54.68 227.685 57.592C227.685 57.592 227.605 60.328 227.445 65.8C227.445 66.44 227.381 66.808 227.253 66.904C227.157 67 226.709 67.048 225.909 67.048C225.141 67.048 224.245 66.984 223.221 66.856C223.125 66.088 223.077 64.744 223.077 62.824L223.125 56.68C223.125 54.12 222.693 52.2 221.829 50.92C220.965 49.608 219.477 48.952 217.365 48.952C215.285 48.952 213.701 49.256 212.613 49.864L212.709 56.296C212.741 59.176 212.757 61.416 212.757 63.016L212.853 65.848C212.853 66.36 212.725 66.696 212.469 66.856C212.213 66.984 211.669 67.048 210.837 67.048L208.341 66.952L208.149 56.92L208.341 49.624V47.896C208.341 46.776 208.885 46.216 209.973 46.216ZM232.951 64.648L234.679 64.84C235.959 64.84 237.111 64.568 238.135 64.024C239.159 63.448 239.671 62.632 239.671 61.576C239.671 61.192 239.591 60.792 239.431 60.376C239.303 59.928 238.791 59.304 237.895 58.504C237.031 57.672 236.231 56.728 235.495 55.672C234.759 54.616 234.391 53.432 234.391 52.12C234.391 50.84 234.967 49.496 236.119 48.088C236.663 47.416 237.479 46.856 238.567 46.408C239.655 45.928 240.711 45.688 241.735 45.688C242.791 45.688 243.431 45.816 243.655 46.072C243.911 46.296 244.007 46.632 243.943 47.08L243.559 48.472C243.079 48.344 242.519 48.28 241.879 48.28C241.271 48.28 240.631 48.536 239.959 49.048C239.287 49.528 238.951 50.152 238.951 50.92C238.951 51.688 239.239 52.472 239.815 53.272C240.391 54.04 241.031 54.712 241.735 55.288C242.439 55.864 243.079 56.648 243.655 57.64C244.231 58.632 244.519 59.704 244.519 60.856C244.519 63.064 243.543 64.744 241.591 65.896C239.639 67.016 237.319 67.576 234.631 67.576C233.927 67.576 233.415 67.432 233.095 67.144C232.775 66.888 232.615 66.472 232.615 65.896C232.615 65.288 232.727 64.872 232.951 64.648ZM252.34 39.4C252.02 39.304 251.636 38.984 251.188 38.44C250.772 37.864 250.564 37.336 250.564 36.856C250.596 36.344 250.916 35.832 251.524 35.32C252.164 34.776 252.98 34.504 253.972 34.504C255.444 34.504 256.18 35.208 256.18 36.616C256.18 37.608 255.86 38.344 255.22 38.824C254.612 39.304 254.052 39.544 253.54 39.544C253.06 39.544 252.66 39.496 252.34 39.4ZM255.316 56.584L255.46 66.088C255.46 66.472 255.412 66.712 255.316 66.808C254.996 66.968 254.324 67.048 253.3 67.048C252.276 67.048 251.636 66.984 251.38 66.856C251.156 66.696 251.044 66.248 251.044 65.512L250.852 56.728C250.852 53.656 250.868 51.704 250.9 50.872L251.044 48.04C251.044 47.144 251.188 46.616 251.476 46.456C251.764 46.296 252.308 46.216 253.108 46.216C253.94 46.216 254.644 46.264 255.22 46.36C255.284 47.768 255.316 48.872 255.316 49.672V56.584ZM266.937 52.6C266.937 55.416 268.201 56.824 270.729 56.824C271.945 56.824 272.873 56.408 273.513 55.576C274.185 54.744 274.521 53.624 274.521 52.216C274.521 50.776 274.185 49.72 273.513 49.048C272.873 48.344 271.977 47.992 270.825 47.992C269.673 47.992 268.729 48.408 267.993 49.24C267.289 50.04 266.937 51.16 266.937 52.6ZM269.913 68.776H268.953C268.377 68.776 267.513 68.648 266.361 68.392C265.369 68.392 264.873 69.624 264.873 72.088C264.873 75.128 267.145 76.728 271.689 76.888C273.769 76.888 275.417 76.472 276.633 75.64C277.849 74.84 278.457 73.656 278.457 72.088C278.457 70.616 277.705 69.688 276.201 69.304C274.921 68.952 272.825 68.776 269.913 68.776ZM278.073 50.152C278.201 50.92 278.265 51.416 278.265 51.64C278.265 53.784 277.513 55.672 276.009 57.304C275.561 57.784 274.761 58.28 273.609 58.792C272.457 59.304 271.209 59.592 269.865 59.656C268.617 59.656 267.833 59.736 267.513 59.896C267.193 60.024 266.921 60.152 266.697 60.28C266.505 60.408 266.361 60.568 266.265 60.76C266.009 61.208 265.881 61.688 265.881 62.2C265.881 62.68 265.977 63.08 266.169 63.4C266.393 63.688 266.601 63.912 266.793 64.072C267.017 64.2 267.385 64.312 267.897 64.408C268.665 64.504 270.201 64.584 272.505 64.648C274.809 64.68 276.585 64.824 277.833 65.08C281.385 65.88 283.161 67.912 283.161 71.176C283.161 72.84 282.537 74.328 281.289 75.64C280.073 76.952 278.569 77.912 276.777 78.52C275.017 79.16 273.353 79.48 271.785 79.48C270.249 79.48 268.937 79.384 267.849 79.192C266.761 79 265.673 78.68 264.585 78.232C263.529 77.784 262.681 77.112 262.041 76.216C261.401 75.352 261.081 74.328 261.081 73.144C261.081 71.96 261.369 70.856 261.945 69.832C262.521 68.84 263.177 68.088 263.913 67.576C262.505 66.36 261.801 65.064 261.801 63.688C261.801 62.952 261.945 62.296 262.233 61.72C262.521 61.144 262.809 60.728 263.097 60.472C263.417 60.216 263.833 59.928 264.345 59.608C264.889 59.288 265.257 59.048 265.449 58.888C264.841 58.408 264.361 57.992 264.009 57.64C263.689 57.288 263.321 56.68 262.905 55.816C262.521 54.92 262.329 53.928 262.329 52.84C262.329 50.696 263.177 48.968 264.873 47.656C266.601 46.344 268.761 45.688 271.353 45.688C273.977 45.688 275.817 46.312 276.873 47.56C278.921 46.152 280.665 45.448 282.105 45.448C282.553 45.448 282.889 45.752 283.113 46.36C283.369 46.968 283.497 47.576 283.497 48.184C283.497 48.76 283.417 49.128 283.257 49.288C283.097 49.416 282.809 49.48 282.393 49.48C280.665 49.48 279.225 49.704 278.073 50.152ZM287.227 64.888L287.467 48.136V33.16C287.467 32.616 287.627 32.216 287.947 31.96C288.267 31.704 289.035 31.576 290.251 31.576C291.467 31.576 292.075 31.896 292.075 32.536V33.88C292.011 35.48 291.979 37.064 291.979 38.632C291.979 40.2 291.979 42.024 291.979 44.104C292.011 46.152 292.027 47.336 292.027 47.656C293.467 46.952 294.843 46.456 296.155 46.168C297.499 45.848 298.507 45.688 299.179 45.688C302.283 45.688 304.395 46.488 305.515 48.088C306.635 49.688 307.195 52.408 307.195 56.248C307.195 60.088 307.163 62.328 307.099 62.968C307.067 63.576 307.051 64.12 307.051 64.6V65.56C307.051 66.2 306.907 66.584 306.619 66.712C305.915 66.968 305.227 67.096 304.555 67.096C303.915 67.096 303.467 67.064 303.211 67C302.955 66.936 302.779 66.776 302.683 66.52C302.587 66.264 302.523 66.072 302.491 65.944C302.491 65.816 302.491 65.496 302.491 64.984C302.523 64.472 302.539 64.12 302.539 63.928L302.587 54.856C302.587 52.712 302.251 51.208 301.579 50.344C300.939 49.448 299.531 49 297.355 49C293.899 49 292.171 49.56 292.171 50.68L292.123 54.808C292.123 59.352 292.091 62.152 292.027 63.208C291.995 64.264 291.979 64.952 291.979 65.272C292.011 65.56 292.011 65.832 291.979 66.088C291.947 66.312 291.851 66.488 291.691 66.616C291.403 66.936 290.811 67.096 289.915 67.096C289.019 67.096 288.427 67.064 288.139 67C287.531 66.84 287.227 66.136 287.227 64.888ZM319.938 53.128L319.842 60.04C319.842 61.352 320.066 62.36 320.514 63.064C320.962 63.736 321.714 64.072 322.77 64.072C323.826 64.072 324.722 63.976 325.458 63.784C326.834 63.4 327.522 63.592 327.522 64.36C327.522 66.504 325.538 67.576 321.57 67.576C319.33 67.576 317.586 66.568 316.338 64.552C315.73 63.272 315.426 61.752 315.426 59.992L315.522 54.424L315.618 50.392C315.618 49.944 315.554 49.672 315.426 49.576C315.298 49.448 315.058 49.384 314.706 49.384L312.834 49.528C312.034 49.528 311.634 49.272 311.634 48.76C311.634 47.864 311.73 47.24 311.922 46.888C312.146 46.504 312.546 46.312 313.122 46.312L314.994 46.456C315.442 46.456 315.666 45.912 315.666 44.824C315.666 44.696 315.666 44.616 315.666 44.584V41.848C315.666 41.016 315.682 40.536 315.714 40.408C316.098 40.216 317.362 40.12 319.506 40.12C320.082 40.12 320.37 40.424 320.37 41.032L320.226 46.312C320.61 46.344 321.234 46.36 322.098 46.36L325.938 46.072C326.45 46.072 326.706 46.376 326.706 46.984C326.706 48.744 325.842 49.624 324.114 49.624L320.994 49.432C320.482 49.432 320.162 49.464 320.034 49.528C319.97 50.104 319.938 51.304 319.938 53.128Z" fill="black"/>
<defs>
<linearGradient id="paint0_linear_1_2" x1="31.5468" y1="33.1651" x2="102.994" y2="67.8507" gradientUnits="userSpaceOnUse">
<stop stop-color="#5931BA"/>
<stop offset="1" stop-color="#597EBA"/>
</linearGradient>
</defs>
</svg>
