<svg width="97" height="97" viewBox="0 0 97 97" fill="none" xmlns="http://www.w3.org/2000/svg">
<path d="M83.9219 45.493C60.4208 38.1695 51.3141 21.5825 47.7889 10.282C47.0545 8.00251 43.7742 8.00251 43.0398 10.282C36.0384 32.592 19.2449 41.807 7.73916 45.5415C5.43801 46.269 5.48697 49.5185 7.78812 50.1975C29.2818 56.5995 38.8292 74.69 42.8439 86.4755C43.6273 88.8035 46.9077 88.658 47.5931 86.33C54.0559 62.7105 71.9265 53.641 83.824 50.1975C86.1741 49.5185 86.223 46.2205 83.9219 45.493ZM58.952 48.985C54.8393 50.1975 48.6702 53.3015 46.4181 61.498C46.1733 62.3225 45.0472 62.371 44.8024 61.5465C43.4315 57.4725 40.1511 51.216 32.7091 48.985C31.9257 48.7425 31.8767 47.627 32.7091 47.3845C36.6749 46.075 42.5012 42.9225 44.9003 35.211C45.1451 34.435 46.2712 34.435 46.516 35.211C47.74 39.091 50.8735 44.8625 59.0009 47.3845C59.7843 47.627 59.7843 48.7425 58.952 48.985Z" fill="url(#paint0_linear_1_2)"/>
<defs>
<linearGradient id="paint0_linear_1_2" x1="13.434" y1="33.1651" x2="84.8811" y2="67.8507" gradientUnits="userSpaceOnUse">
<stop stop-color="#5931BA"/>
<stop offset="1" stop-color="#597EBA"/>
</linearGradient>
</defs>
</svg>
